<svg xmlns="http://www.w3.org/2000/svg" viewBox="0 0 64 64">
  <defs>
    <linearGradient id="bg" x1="0%" x2="100%" y1="0%" y2="100%">
      <stop offset="0%" stop-color="#0d4f43" />
      <stop offset="100%" stop-color="#5cc59e" />
    </linearGradient>
  </defs>
  <rect width="64" height="64" rx="16" fill="url(#bg)" />
  <path
    d="M21 40c0-6.1 4.9-11 11-11 4.8 0 8.8 3 10.3 7.2 3.8.3 6.7 3.5 6.7 7.3 0 4-3.2 7.2-7.2 7.2H24.6A8.6 8.6 0 0 1 16 42.1c0-4.4 3.4-8 7.8-8.4.9-3.9 4.4-6.7 8.5-6.7 2.9 0 5.5 1.4 7.1 3.6A11 11 0 0 0 21 40Z"
    fill="#eaf9f1"
  />
</svg>
